<?xml version="1.0" encoding="UTF-8"?>
<svg id="Layer_2" data-name="Layer 2" xmlns="http://www.w3.org/2000/svg" viewBox="0 0 792.21 289.16">
  <defs>
    <style>
      .cls-1 {
        fill: #231f20;
      }

      .cls-2 {
        fill: #34b24a;
      }

      .cls-3 {
        fill: #3081c3;
      }
    </style>
  </defs>
  <g id="Layer_1-2" data-name="Layer 1">
    <g>
      <g>
        <g>
          <path class="cls-1" d="M352.8,273.85l-12.47-21.61h2.34l11.16,19.34,11.18-19.34h2.34l-12.5,21.61v14.67h-2.04v-14.67Z"/>
          <path class="cls-1" d="M379.81,264.24c3.45,0,6.38,1.22,8.81,3.65,2.43,2.43,3.64,5.38,3.64,8.82s-1.21,6.37-3.64,8.8c-2.43,2.43-5.36,3.65-8.81,3.65s-6.37-1.22-8.8-3.65c-2.43-2.43-3.65-5.37-3.65-8.8s1.22-6.39,3.65-8.82c2.43-2.43,5.37-3.65,8.8-3.65ZM372.53,269.43c-2.01,2.01-3.02,4.44-3.02,7.28s1.01,5.27,3.02,7.27c2.01,2,4.44,3,7.28,3s5.27-1,7.28-3c2.01-2,3.02-4.43,3.02-7.27s-1.01-5.27-3.02-7.28-4.44-3.02-7.28-3.02-5.27,1.01-7.28,3.02Z"/>
          <path class="cls-1" d="M406.89,288.84c-2.78,0-5-.82-6.64-2.47s-2.49-3.73-2.54-6.24v-13.88h2.04v13.7c0,1.89.69,3.5,2.06,4.83,1.36,1.35,3.05,2.02,5.06,2.02,1.87,0,3.5-.67,4.86-2.01s2.05-2.95,2.05-4.84v-13.7h2.04v13.88c-.04,2.51-.89,4.59-2.54,6.24-1.65,1.65-3.78,2.47-6.4,2.47Z"/>
          <path class="cls-1" d="M422.62,266.26h2.04v4.06c.42-.6.91-1.19,1.47-1.75,1.8-1.8,3.64-2.74,5.53-2.83v2.22c-1.29.06-2.62.78-3.99,2.15-1.94,1.92-2.94,4.23-3.02,6.92v11.5h-2.04v-22.27Z"/>
          <path class="cls-1" d="M481.22,282.74l1.54,1.38c-3.54,3.22-7.7,4.83-12.5,4.83-5.14,0-9.52-1.81-13.14-5.43-3.62-3.62-5.43-8-5.43-13.14s1.81-9.5,5.43-13.13c3.62-3.63,8-5.44,13.14-5.44,4.79,0,8.96,1.61,12.5,4.83l-1.54,1.41c-3.11-2.77-6.77-4.15-10.95-4.15-4.55,0-8.44,1.61-11.66,4.83-3.22,3.22-4.83,7.11-4.83,11.66s1.61,8.46,4.83,11.68c3.22,3.22,7.11,4.83,11.66,4.83,4.19,0,7.84-1.38,10.95-4.15Z"/>
          <path class="cls-1" d="M497.62,288.84c-2.78,0-5-.82-6.64-2.47s-2.49-3.73-2.54-6.24v-13.88h2.04v13.7c0,1.89.69,3.5,2.06,4.83,1.36,1.35,3.05,2.02,5.06,2.02,1.87,0,3.5-.67,4.86-2.01s2.05-2.95,2.05-4.84v-13.7h2.04v13.88c-.04,2.51-.89,4.59-2.54,6.24-1.65,1.65-3.78,2.47-6.4,2.47Z"/>
          <path class="cls-1" d="M513.36,266.26h2.04v4.06c.42-.6.91-1.19,1.47-1.75,1.8-1.8,3.64-2.74,5.53-2.83v2.22c-1.29.06-2.62.78-3.99,2.15-1.94,1.92-2.94,4.23-3.02,6.92v11.5h-2.04v-22.27Z"/>
          <path class="cls-1" d="M531.09,284.35c1.92,1.75,4.2,2.63,6.85,2.63,2.84,0,5.27-1,7.28-3.02.26-.26.5-.52.73-.79l2.15.77c-.39.54-.84,1.07-1.34,1.56-2.43,2.43-5.38,3.65-8.82,3.65s-6.37-1.22-8.8-3.65c-2.43-2.43-3.65-5.37-3.65-8.82s1.22-6.36,3.65-8.8c2.43-2.43,5.37-3.65,8.8-3.65,2.95,0,5.52.88,7.73,2.65.36.3.72.63,1.09,1,.14.14.26.27.38.41l-1.54,1.54-14.51,14.51ZM544.11,268.46c-1.77-1.36-3.82-2.04-6.17-2.04-2.83,0-5.25,1-7.26,3-2.01,2-3.02,4.43-3.02,7.27,0,2.34.68,4.4,2.04,6.17l14.4-14.4Z"/>
          <path class="cls-1" d="M586.68,274.62h-12.56l-5.06,13.9h-2.18l13.52-37.12,13.49,37.12h-2.16l-5.06-13.9ZM585.93,272.58l-5.53-15.22-5.53,15.22h11.07Z"/>
          <path class="cls-1" d="M604.55,277.07c-1.74-.94-2.94-1.74-3.61-2.4-1.04-1.04-1.56-2.3-1.56-3.76s.52-2.75,1.56-3.8,2.3-1.58,3.76-1.58,2.71.48,3.67,1.45c.94.95,1.41,2.03,1.41,3.24v.11l-1.77.7c-.15-1.15-.51-2.01-1.08-2.59-.57-.57-1.31-.86-2.23-.86s-1.69.32-2.34.96c-.65.64-.98,1.42-.98,2.35s.33,1.69.98,2.34c.38.38,1.18.95,2.4,1.72,1.94,1.06,3.31,2,4.13,2.81,1.29,1.3,1.93,2.85,1.93,4.65s-.64,3.41-1.93,4.71-2.84,1.94-4.67,1.94-3.39-.65-4.67-1.94-1.93-2.71-1.93-4.25l2.02-.52c0,1.33.45,2.44,1.35,3.33.9.89,1.98,1.34,3.23,1.34s2.33-.45,3.23-1.34c.9-.89,1.35-1.98,1.35-3.27s-.45-2.33-1.34-3.22c-.48-.48-1.46-1.19-2.93-2.13Z"/>
          <path class="cls-1" d="M622.73,277.07c-1.74-.94-2.94-1.74-3.61-2.4-1.04-1.04-1.56-2.3-1.56-3.76s.52-2.75,1.56-3.8,2.3-1.58,3.76-1.58,2.71.48,3.67,1.45c.94.95,1.41,2.03,1.41,3.24v.11l-1.77.7c-.15-1.15-.51-2.01-1.08-2.59-.57-.57-1.31-.86-2.23-.86s-1.69.32-2.34.96c-.65.64-.98,1.42-.98,2.35s.33,1.69.98,2.34c.38.38,1.18.95,2.4,1.72,1.94,1.06,3.31,2,4.13,2.81,1.29,1.3,1.93,2.85,1.93,4.65s-.64,3.41-1.93,4.71c-1.29,1.29-2.84,1.94-4.67,1.94s-3.39-.65-4.67-1.94-1.93-2.71-1.93-4.25l2.02-.52c0,1.33.45,2.44,1.35,3.33.9.89,1.98,1.34,3.23,1.34s2.33-.45,3.23-1.34c.9-.89,1.35-1.98,1.35-3.27s-.45-2.33-1.34-3.22c-.48-.48-1.46-1.19-2.93-2.13Z"/>
          <path class="cls-1" d="M637.71,258.95c.4.39.6.87.6,1.43s-.2,1.06-.6,1.45c-.4.39-.88.59-1.44.59s-1.04-.2-1.44-.59c-.4-.39-.6-.88-.6-1.45s.2-1.04.6-1.43c.4-.39.88-.59,1.44-.59s1.04.2,1.44.59ZM637.29,266.26v22.27h-2.04v-22.27h2.04Z"/>
          <path class="cls-1" d="M650.67,277.07c-1.74-.94-2.94-1.74-3.61-2.4-1.04-1.04-1.56-2.3-1.56-3.76s.52-2.75,1.56-3.8,2.3-1.58,3.76-1.58,2.71.48,3.67,1.45c.94.95,1.41,2.03,1.41,3.24v.11l-1.77.7c-.15-1.15-.51-2.01-1.08-2.59-.57-.57-1.31-.86-2.23-.86s-1.69.32-2.34.96c-.65.64-.98,1.42-.98,2.35s.33,1.69.98,2.34c.38.38,1.18.95,2.4,1.72,1.94,1.06,3.31,2,4.13,2.81,1.29,1.3,1.93,2.85,1.93,4.65s-.64,3.41-1.93,4.71-2.84,1.94-4.67,1.94-3.39-.65-4.67-1.94-1.93-2.71-1.93-4.25l2.02-.52c0,1.33.45,2.44,1.35,3.33.9.89,1.98,1.34,3.23,1.34s2.33-.45,3.23-1.34c.9-.89,1.35-1.98,1.35-3.27s-.45-2.33-1.34-3.22c-.48-.48-1.46-1.19-2.93-2.13Z"/>
          <path class="cls-1" d="M666.25,266.26v-9.48h2.04v9.48h4.54v2.04h-4.54v20.23h-2.04v-20.23h-4.54v-2.04h4.54Z"/>
          <path class="cls-1" d="M702.31,288.53h-2.04v-4.54c-.39.53-.82,1.04-1.29,1.52-2.43,2.43-5.38,3.65-8.82,3.65s-6.37-1.22-8.8-3.65c-2.43-2.43-3.65-5.37-3.65-8.8s1.22-6.39,3.65-8.82,5.37-3.65,8.8-3.65,6.39,1.22,8.82,3.65c.47.48.9.99,1.29,1.52v-3.15h2.04v22.27ZM700.27,278.73v-4.04c-.38-2-1.32-3.75-2.83-5.26-2.01-2.01-4.44-3.02-7.28-3.02s-5.27,1.01-7.28,3.02-3.02,4.44-3.02,7.28,1,5.27,3.02,7.27c2.01,2,4.44,3,7.28,3s5.27-1,7.28-3.02c1.51-1.51,2.46-3.26,2.83-5.24Z"/>
          <path class="cls-1" d="M711.15,271.22v17.3h-2.04v-22.27h2.04v1.43c1.86-1.84,4.02-2.77,6.49-2.77,2.63,0,4.77.82,6.42,2.47,1.65,1.65,2.49,3.73,2.54,6.24v14.9h-2.04v-14.72c0-1.89-.68-3.5-2.05-4.84s-2.99-2.01-4.86-2.01-3.49.66-4.85,1.97c-.74.74-1.29,1.5-1.63,2.29Z"/>
          <path class="cls-1" d="M736.58,266.26v-9.48h2.04v9.48h4.54v2.04h-4.54v20.23h-2.04v-20.23h-4.54v-2.04h4.54Z"/>
        </g>
        <g>
          <path class="cls-3" d="M368.39,130.77v-6.28h18.15v89.86h-18.15v-11.25c-8.72,9.02-18.84,13.52-30.36,13.52-13.73,0-25.43-4.84-35.12-14.53-9.68-9.68-14.53-21.39-14.53-35.11s4.84-25.43,14.53-35.12c9.68-9.68,21.39-14.52,35.12-14.52,11.52,0,21.64,4.48,30.36,13.44ZM368.39,173.61v-13.26c-1.05-5.64-3.84-10.76-8.38-15.35-6.11-6.05-13.44-9.07-21.99-9.07s-15.95,3.02-22.03,9.07c-6.08,6.05-9.12,13.38-9.12,21.99s3.04,15.86,9.12,21.94c6.08,6.08,13.42,9.12,22.03,9.12s15.88-3.02,21.99-9.07c4.54-4.59,7.33-9.71,8.38-15.35Z"/>
          <path class="cls-3" d="M432.25,91.25c2.5,2.44,3.75,5.44,3.75,8.99s-1.25,6.54-3.75,8.99c-2.5,2.44-5.5,3.66-8.99,3.66s-6.4-1.22-8.9-3.66c-2.5-2.44-3.75-5.44-3.75-8.99s1.25-6.54,3.75-8.99c2.5-2.44,5.47-3.66,8.9-3.66s6.48,1.22,8.99,3.66ZM432.34,124.49v89.77h-18.06v-89.77h18.06Z"/>
          <path class="cls-3" d="M533.45,193.67l8.29,2.97c-1.51,2.09-3.23,4.1-5.15,6.02-9.37,9.37-20.68,14.05-33.94,14.05s-24.49-4.68-33.85-14.05c-9.36-9.36-14.05-20.68-14.05-33.94s4.68-24.48,14.05-33.85c9.36-9.36,20.65-14.05,33.85-14.05s24.57,4.68,33.94,14.05c1.92,1.92,3.63,3.9,5.15,5.93l-8.29,3.05c-.87-1.05-1.8-2.09-2.79-3.14-7.74-7.68-17.07-11.52-28-11.52s-20.18,3.85-27.92,11.56c-7.74,7.71-11.6,17.03-11.6,27.96s3.87,20.27,11.6,28.01c7.73,7.74,17.04,11.6,27.92,11.6s20.27-3.87,28-11.6c.99-.99,1.92-2.01,2.79-3.05Z"/>
          <path class="cls-3" d="M598.01,215.48c-10.7,0-19.22-3.17-25.56-9.51-6.34-6.34-9.6-14.34-9.77-23.99v-53.39h7.85v52.69c0,7.27,2.65,13.46,7.94,18.58,5.23,5.18,11.72,7.76,19.46,7.76,7.21,0,13.45-2.57,18.71-7.72,5.26-5.15,7.89-11.36,7.89-18.63v-52.69h7.85v53.39c-.17,9.66-3.43,17.65-9.77,23.99-6.34,6.34-14.54,9.51-24.6,9.51Z"/>
          <path class="cls-3" d="M658.56,128.59h7.85v15.62c1.63-2.33,3.52-4.57,5.67-6.72,6.92-6.92,14.02-10.56,21.29-10.91v8.55c-4.94.23-10.06,3-15.35,8.29-7.45,7.39-11.31,16.26-11.6,26.61v44.23h-7.85v-85.67Z"/>
          <path class="cls-3" d="M726.78,198.21c7.39,6.75,16.17,10.12,26.35,10.12,10.93,0,20.27-3.87,28-11.6.99-.99,1.92-2.01,2.79-3.05l8.29,2.97c-1.51,2.09-3.23,4.1-5.15,6.02-9.37,9.37-20.68,14.05-33.94,14.05s-24.49-4.68-33.85-14.05c-9.37-9.36-14.05-20.68-14.05-33.94s4.68-24.48,14.05-33.85c9.36-9.36,20.65-14.05,33.85-14.05,11.34,0,21.26,3.4,29.75,10.21,1.4,1.16,2.79,2.44,4.19,3.84.52.52,1.02,1.05,1.48,1.57l-5.93,5.93-55.84,55.83ZM776.86,137.05c-6.8-5.23-14.71-7.85-23.73-7.85-10.88,0-20.18,3.85-27.92,11.56-7.74,7.71-11.6,17.03-11.6,27.96,0,9.02,2.62,16.93,7.85,23.73l55.4-55.4Z"/>
        </g>
      </g>
      <g>
        <path class="cls-2" d="M114.36,116.38v-58.73h-57.48v58.73H0v57.83h56.88v57.13h57.48v-57.13h56.88v-57.83h-56.88ZM152.39,155.37h-56.88v57.13h-19.79v-57.13H18.84v-20.15h56.88v-58.73h19.79v58.73h56.88v20.15Z"/>
        <g>
          <polygon class="cls-3" points="56.88 48.28 75.72 48.28 75.72 19.36 95.51 19.36 95.51 48.28 114.36 48.28 114.36 .52 56.88 .52 56.88 48.28"/>
          <polygon class="cls-3" points="95.51 269.62 75.72 269.62 75.72 240.71 56.88 240.71 56.88 288.46 114.36 288.46 114.36 240.71 95.51 240.71 95.51 269.62"/>
          <polygon class="cls-3" points="246.81 18.84 166.07 106.24 181.41 106.84 181.59 117.93 288.59 0 212.71 0 123.36 95.54 123.59 106.35 138.92 106.49 220.86 18.84 246.81 18.84"/>
          <polygon class="cls-3" points="181.71 173.8 251.4 269.66 225.78 269.66 164.96 183.67 141.3 183.57 216.19 288.5 288.39 288.5 181.99 140.87 181.71 173.8"/>
        </g>
      </g>
    </g>
  </g>
</svg>